<svg class="" width="20" height="20" viewBox="0 0 40 40" fill="none" xmlns="http://www.w3.org/2000/svg"><path fill-rule="evenodd" clip-rule="evenodd" d="M25.3846 9.71994H28V4.00348H23.247C22.8505 3.98373 18.0173 3.87313 16.7645 9.59222C16.7464 9.65213 16.346 11.0123 16.346 14.1895L12 14.2053V20.2009L16.3515 20.1857V36H22.9985V20.1996H27.3978V14.1882H22.9985V12.2967C22.9985 11.1209 23.4125 9.71994 25.3846 9.71994ZM26.298 15.5042V18.8822H21.8986V34.6826H17.4514V18.8651L13.0998 18.8802V15.518L17.4629 15.5029L17.4514 14.8334C17.3942 11.4679 17.7951 10.0524 17.8132 9.9846C18.8944 5.05882 23.0227 5.30636 23.1997 5.31952L26.9002 5.32084V8.4039H25.3846C22.8148 8.4039 21.8992 10.4145 21.8992 12.2961V15.5042H26.298Z M32.6673 0H7.33267C3.28933 0 0 3.28933 0 7.33267V32.668C0 36.7107 3.28933 40 7.33267 40H32.6673C36.71 40 40 36.7107 40 32.6673V7.33267C40 3.28933 36.71 0 32.6673 0ZM38.6667 32.6673C38.6667 35.9753 35.9753 38.6667 32.6673 38.6667H7.33267C4.02467 38.6667 1.33333 35.9753 1.33333 32.6673V7.33267C1.33333 4.02467 4.02467 1.33333 7.33267 1.33333H32.6673C35.9753 1.33333 38.6667 4.02467 38.6667 7.33267V32.6673Z" fill="#1D78F2"></path></svg>