<svg xmlns="http://www.w3.org/2000/svg" fill="none" viewBox="0 0 113 19" height="19" width="113">
<path fill="#60CBDB" d="M97.0754 7.72639C93.0297 7.72639 90.9691 6.29481 89.1509 5.03172C87.5093 3.89106 86.2124 2.99007 83.4412 2.99007C80.6701 2.99007 79.3732 3.89106 77.7314 5.03172C75.9134 6.29481 73.8528 7.72639 69.8069 7.72639C65.761 7.72639 63.7006 6.29481 61.8824 5.03172C60.2408 3.89106 58.9442 2.99007 56.1731 2.99007C53.4022 2.99007 52.1056 3.89106 50.464 5.03172C48.6461 6.29481 46.5854 7.72639 42.5395 7.72639C38.4942 7.72639 36.434 6.29481 34.6161 5.03172C32.9748 3.89106 31.6782 2.99007 28.9076 2.99007C26.1367 2.99007 24.8401 3.89106 23.1985 5.03172C21.3806 6.29481 19.3199 7.72639 15.2743 7.72639C11.2284 7.72639 9.16776 6.29481 7.34958 5.03172C5.70798 3.89106 4.41139 2.99007 1.64022 2.99007C0.734547 2.99007 0 2.43271 0 1.74504C0 1.05757 0.734547 0.5 1.64022 0.5C5.68584 0.5 7.74651 1.93158 9.5647 3.19467C11.2063 4.33533 12.5032 5.23632 15.2743 5.23632C18.0452 5.23632 19.3418 4.33533 20.9834 3.19488C22.8013 1.93158 24.862 0.5 28.9076 0.5C32.9529 0.5 35.0133 1.93179 36.8312 3.19488C38.4726 4.33554 39.7689 5.23632 42.5395 5.23632C45.3107 5.23632 46.6073 4.33533 48.2489 3.19488C50.0668 1.93158 52.1274 0.5 56.1731 0.5C60.2189 0.5 62.2793 1.93158 64.0975 3.19488C65.7391 4.33533 67.036 5.23632 69.8069 5.23632C72.5783 5.23632 73.8749 4.33533 75.5165 3.19488C77.3347 1.93158 79.3954 0.5 83.4412 0.5C87.4871 0.5 89.5478 1.93158 91.366 3.19488C93.0076 4.33533 94.3042 5.23632 97.0754 5.23632C99.8471 5.23632 101.144 4.33533 102.786 3.19467C104.604 1.93158 106.665 0.5 110.711 0.5C111.617 0.5 112.352 1.05757 112.352 1.74504C112.352 2.43271 111.617 2.99007 110.711 2.99007C107.94 2.99007 106.643 3.89106 105.001 5.03172C103.182 6.29481 101.122 7.72639 97.0754 7.72639Z"></path>
<path fill="#60CBDB" d="M97.0753 18.5164C93.0297 18.5164 90.969 17.0849 89.1509 15.8218C87.5093 14.6811 86.2124 13.7801 83.4412 13.7801C80.6701 13.7801 79.3732 14.6811 77.7313 15.8218C75.9134 17.0849 73.8528 18.5164 69.8069 18.5164C65.761 18.5164 63.7006 17.0849 61.8824 15.8218C60.2408 14.6811 58.9442 13.7801 56.173 13.7801C53.4022 13.7801 52.1056 14.6811 50.464 15.8218C48.6461 17.0849 46.5854 18.5164 42.5395 18.5164C38.4942 18.5164 36.434 17.0849 34.6161 15.8218C32.9748 14.6811 31.6782 13.7801 28.9076 13.7801C26.1367 13.7801 24.8401 14.6811 23.1985 15.8218C21.3806 17.0849 19.3199 18.5164 15.2743 18.5164C11.2284 18.5164 9.16776 17.0849 7.34957 15.8218C5.70798 14.6811 4.41138 13.7801 1.64022 13.7801C0.734547 13.7801 0 13.2228 0 12.5351C0 11.8476 0.734547 11.29 1.64022 11.29C5.68584 11.29 7.74651 12.7216 9.5647 13.9847C11.2063 15.1254 12.5032 16.0264 15.2743 16.0264C18.0452 16.0264 19.3418 15.1254 20.9834 13.9849C22.8013 12.7216 24.862 11.29 28.9076 11.29C32.9529 11.29 35.0133 12.7218 36.8312 13.9849C38.4726 15.1256 39.7689 16.0264 42.5395 16.0264C45.3107 16.0264 46.6073 15.1254 48.2488 13.9849C50.0668 12.7216 52.1274 11.29 56.173 11.29C60.2189 11.29 62.2793 12.7216 64.0975 13.9849C65.7391 15.1254 67.036 16.0264 69.8069 16.0264C72.5783 16.0264 73.8749 15.1254 75.5165 13.9849C77.3347 12.7216 79.3953 11.29 83.4412 11.29C87.4871 11.29 89.5478 12.7216 91.366 13.9849C93.0076 15.1254 94.3042 16.0264 97.0753 16.0264C99.847 16.0264 101.144 15.1254 102.786 13.9847C104.604 12.7216 106.665 11.29 110.711 11.29C111.617 11.29 112.352 11.8476 112.352 12.5351C112.352 13.2228 111.617 13.7801 110.711 13.7801C107.94 13.7801 106.643 14.6811 105.001 15.8218C103.182 17.0849 101.122 18.5164 97.0753 18.5164Z"></path>
</svg>
