<svg class="" width="20" height="20" viewBox="0 0 40 40" fill="none" xmlns="http://www.w3.org/2000/svg"><path fill-rule="evenodd" clip-rule="evenodd" d="M32.6673 0H7.33267C3.28933 0 0 3.28933 0 7.33267V32.668C0 36.7107 3.28933 40 7.33267 40H32.6673C36.71 40 40 36.7107 40 32.6673V7.33267C40 3.28933 36.71 0 32.6673 0ZM38.6667 32.6673C38.6667 35.9753 35.9753 38.6667 32.6673 38.6667H7.33267C4.02467 38.6667 1.33333 35.9753 1.33333 32.6673V7.33267C1.33333 4.02467 4.02467 1.33333 7.33267 1.33333H32.6673C35.9753 1.33333 38.6667 4.02467 38.6667 7.33267V32.6673Z M9.79021 31.9425L32.7225 20.4879C33.0925 20.3025 33.0925 19.6974 32.7225 19.5121L9.79022 8.05752C9.62121 7.97335 9.42014 7.98189 9.25916 8.08094C9.09813 8.18106 9 8.35687 9 8.54541L9 31.4545C9 31.6431 9.09813 31.8189 9.25916 31.919C9.42014 32.0181 9.62116 32.0266 9.79021 31.9425ZM10.0909 9.42757L31.2347 20L10.0909 30.5725L10.0909 9.42757Z" fill="#F30802"></path></svg>